<svg width="116" height="170" viewBox="0 0 116 170" fill="none" xmlns="http://www.w3.org/2000/svg">
<path d="M0 149.73C0 149.73 3.13146 143.904 19 137.5C34.8685 131.096 37.9452 131.096 37.9452 131.096C37.9452 131.096 21.7175 141.094 34.8685 143.367C48.0196 145.639 89.3481 136.435 104.773 82.5966C120.197 28.7583 89.3481 0 89.3481 0C89.3481 0 127.543 37.3017 112.485 95.9187C97.4268 154.536 53.3284 154.729 37.9452 157.91C22.562 161.092 41 170 41 170C41 170 27.177 167.363 14.8704 161C2.56386 154.637 0 149.73 0 149.73Z" fill="white"/>
</svg>
